<svg xmlns="http://www.w3.org/2000/svg" viewBox="0 0 755.19 149.47"><defs><style>.cls-1{fill:#065890;}</style></defs><title>logotipo</title><path class="cls-1" d="M648.56,351.61c-10.77,0-16.22,15.94-16.08,26,0,7.49,3.64,12.52,10.13,12.52,10.23,0,16-15.15,16-26.24C658.58,357.92,656.08,351.61,648.56,351.61Z" transform="translate(-278.81 -291.96)"/><path class="cls-1" d="M715.67,311.68c2.07-10.84-5.13-19.72-15.94-19.72H323.49c-10.84,0-21.39,8.88-23.43,19.72l-20.89,110c-2.07,10.84,5.13,19.72,16,19.72h376.2c9.27,0,18.31-6.5,22-15.15H295.85V418.5H695.41l-.61,3.21a22.59,22.59,0,0,1-1.43,4.56h338.73V418.5H695.41Zm-354.45,39.4c10.66,5.67,17.4,12.91,17.4,23.46,0,19.75-16.08,29.92-35.58,29.92-12.19,0-20.89-3.17-25-6.35l6.2-15.55a40.69,40.69,0,0,0,20.64,5.67c7.27,0,13.91-3.42,13.91-10.41,0-5-3.78-8.31-11.8-12.52-9.38-5.13-18.18-12-18.18-23.57,0-17.93,15.44-28.88,34.51-28.88,10.66,0,16.9,2.39,20.68,4.49l-5.85,15.8a34.51,34.51,0,0,0-16.37-3.92c-8.7,0-13.26,4.46-13.26,9.34C348.48,343.7,353.83,346.87,361.21,351.08Zm68,2H415.76l-4.28,21.89a47.16,47.16,0,0,0-1.07,8.17c0,3.17,1.32,5.38,5.35,5.38a35.86,35.86,0,0,0,5.17-.25l-2.21,14.9c-2.32.93-7,1.43-11,1.43-11.16,0-16.51-5.78-16.51-13.83a62.27,62.27,0,0,1,1.32-12L397.44,353h-8.06L392,338.7h8.2l2.6-13.58,19.08-4.49-3.39,18.08H432Zm62.58,29.13c-1.57,8.17-2.46,15.15-3.39,21H471.92l1.18-10.55h-.25c-6.49,8.45-14.26,12-21.89,12-10.13,0-16.26-5.78-16.26-18A58,58,0,0,1,436,374.65l6.63-35.94H461.3L455,373.22a54.17,54.17,0,0,0-.89,8.41c0,4.24,1.53,7.52,6.35,7.52,6.35,0,12.84-7.77,15.3-20.68l5.6-29.77H500Zm70.63,21H545.3l.89-10.41h-.25c-5.6,8.56-13.34,11.84-20.72,11.84-10.8,0-19.75-8.7-19.75-24.35,0-22.43,16-43,39.93-43a25.86,25.86,0,0,1,8.77,1.46l5.46-29.13h18.65L565.45,378.1A171.24,171.24,0,0,0,562.45,403.13Zm32.48,0L576.25,403l12.59-64.33,18.68.15Zm5.32-72.51c-5.17,0-9.06-3.57-9.06-9.2A10.67,10.67,0,0,1,602,310.64c5.46,0,9.34,3.67,9.34,9.34C611.3,326.69,606.24,330.65,600.25,330.65ZM640,404.56c-16.12,0-26.88-10.66-26.88-26.6,0-22.39,15.33-40.72,37.9-40.72,17,0,26.88,11.87,26.88,26.49C677.91,387.3,662.07,404.56,640,404.56Z" transform="translate(-278.81 -291.96)"/><path class="cls-1" d="M524.94,377.18c0,7.77,3.35,12.12,8.81,12.12s11.94-5.81,14.4-18.08l3.24-17.36a12.22,12.22,0,0,0-7.42-2.25C532.86,351.61,524.94,364.77,524.94,377.18Z" transform="translate(-278.81 -291.96)"/><path class="cls-1" d="M815.86,378.75a64.84,64.84,0,0,0-1.28,12c0,8.06,5.31,13.83,16.47,13.83,4,0,8.7-.5,11.05-1.43l2.21-14.9a36.36,36.36,0,0,1-5.21.25c-4,0-5.31-2.21-5.31-5.38a46.93,46.93,0,0,1,1-8.17L839.11,353h13.51l2.71-14.33H841.85l3.35-18.08-19.08,4.49-2.6,13.58h-8.17L812.76,353h8.06Z" transform="translate(-278.81 -291.96)"/><path class="cls-1" d="M754.57,380.06h25.21l1.82,23.07H801.2l-10.27-88.82h-24l-42.57,88.82h19.86Zm14.16-33.59c2.35-5.13,4.81-12,7-17.4H776c.39,5.38.93,12.52,1.32,17.4L779,365.55H760Z" transform="translate(-278.81 -291.96)"/><path class="cls-1" d="M874.3,404.56c7.63,0,15.44-3.53,21.89-12h.29l-1.18,10.55h16.51c.89-5.81,1.82-12.8,3.39-21l8.17-43.46H904.68L899,368.48c-2.46,12.91-8.95,20.68-15.3,20.68-4.78,0-6.35-3.28-6.35-7.52a50.46,50.46,0,0,1,.93-8.41l6.35-34.51H866l-6.63,35.94a60.34,60.34,0,0,0-1.28,11.87C858.07,398.78,864.17,404.56,874.3,404.56Z" transform="translate(-278.81 -291.96)"/><path class="cls-1" d="M946.5,404.56c7.38,0,15.44-3.53,21.29-14.23h.39c-.39,4.64-.78,8.95-.93,12.8h17.29a154.56,154.56,0,0,1,2.46-29l6.74-33.73a74.44,74.44,0,0,0-21-3.17c-31.27,0-45.43,23.18-45.43,44.93C927.28,395.61,935.06,404.56,946.5,404.56Zm21.14-52.95a26.59,26.59,0,0,1,5.06.53l-3,14.87c-2.85,15.83-9.73,22.28-15.33,22.28-5.21,0-7.67-4.35-7.67-10.7C946.75,366.62,955.59,351.61,967.64,351.61Z" transform="translate(-278.81 -291.96)"/><polygon class="cls-1" points="755.19 17.61 736.5 17.61 718.85 111.17 737.54 111.17 755.19 17.61"/></svg>